<?xml version="1.0" standalone="no"?>
<!DOCTYPE svg PUBLIC "-//W3C//DTD SVG 20010904//EN"
 "http://www.w3.org/TR/2001/REC-SVG-20010904/DTD/svg10.dtd">
<svg version="1.0" xmlns="http://www.w3.org/2000/svg"
 width="1600.000000pt" height="704.000000pt" viewBox="0 0 1600.000000 704.000000"
 preserveAspectRatio="xMidYMid meet">

<g transform="translate(0.000000,704.000000) scale(0.100000,-0.100000)"
fill="#000000" stroke="none">
<path d="M2344 5455 c-156 -24 -310 -84 -416 -161 -96 -71 -186 -189 -224
-295 -47 -132 -48 -185 -6 -208 10 -5 109 -20 220 -31 218 -23 231 -22 250 27
5 15 17 48 26 73 24 67 69 115 142 151 166 82 358 26 409 -118 9 -28 19 -96
22 -165 l6 -116 -44 -6 c-24 -3 -123 -15 -220 -26 -282 -33 -427 -72 -573
-154 -225 -127 -349 -367 -333 -646 11 -188 57 -302 166 -411 114 -115 238
-159 443 -159 243 0 379 52 565 217 l72 64 41 -61 c55 -82 153 -185 190 -200
16 -7 41 -9 54 -6 21 5 174 132 319 263 53 49 51 80 -14 168 -66 89 -97 159
-109 243 -5 37 -10 277 -10 534 0 521 -4 569 -64 694 -102 215 -377 346 -721
343 -60 -1 -146 -7 -191 -14z m423 -1322 c-7 -174 -22 -247 -69 -334 -64 -121
-164 -189 -277 -189 -109 1 -168 38 -213 135 -19 42 -23 67 -23 155 0 94 3
111 28 161 71 146 239 223 491 228 l69 1 -6 -157z"/>
<path d="M7559 5460 c-372 -59 -612 -247 -685 -538 -32 -128 -22 -135 244
-163 237 -25 227 -28 262 77 31 93 71 139 157 180 107 52 255 40 335 -26 63
-52 82 -106 86 -252 l4 -126 -43 -6 c-24 -3 -105 -13 -179 -21 -408 -47 -600
-115 -753 -269 -109 -110 -166 -233 -188 -404 -35 -278 83 -537 295 -640 95
-46 172 -62 313 -62 246 0 398 60 576 229 52 49 60 54 68 38 30 -53 134 -178
179 -214 73 -60 93 -58 181 20 40 34 113 97 163 140 50 43 97 86 104 95 20 26
7 65 -44 134 -114 156 -114 152 -114 703 0 465 -7 599 -36 690 -63 196 -220
328 -463 392 -78 20 -125 26 -251 28 -85 2 -180 0 -211 -5z m401 -1307 c0
-222 -41 -355 -138 -452 -74 -74 -102 -86 -207 -86 -81 0 -94 3 -128 27 -77
52 -111 131 -111 253 0 137 47 234 146 299 88 58 222 92 371 95 l67 1 0 -137z"/>
<path d="M4659 5427 c-141 -43 -247 -135 -317 -277 l-37 -74 -5 148 c-7 199
11 186 -260 186 -206 0 -207 0 -234 -25 l-26 -24 0 -1038 c1 -800 3 -1042 13
-1054 27 -35 53 -39 266 -39 207 0 210 0 238 24 l28 24 5 709 5 708 24 67 c44
126 117 180 241 181 108 0 175 -48 217 -154 16 -40 18 -109 23 -776 l5 -732
23 -23 c22 -22 29 -23 234 -26 227 -3 257 1 277 44 8 18 11 215 11 682 0 677
4 751 41 828 44 92 137 154 231 154 151 0 221 -70 239 -239 5 -47 9 -387 8
-756 l0 -670 26 -22 c25 -22 33 -23 229 -23 222 0 258 6 275 49 9 20 11 258 8
877 -3 931 -1 894 -64 1018 -38 74 -144 176 -224 214 -215 103 -470 76 -646
-68 -56 -46 -122 -133 -152 -200 l-19 -42 -33 65 c-75 144 -183 245 -303 283
-29 9 -99 18 -161 20 -94 4 -121 1 -186 -19z"/>
<path d="M11400 5435 c-363 -72 -614 -368 -696 -820 -25 -139 -25 -441 0 -580
76 -420 288 -701 606 -803 233 -74 485 -46 698 79 81 48 229 199 286 291 131
213 197 500 182 787 -32 577 -296 956 -729 1045 -91 19 -255 19 -347 1z m290
-422 c144 -59 200 -256 200 -708 0 -402 -53 -583 -193 -660 -130 -72 -271 -25
-341 113 -65 127 -86 274 -86 590 0 325 23 465 94 571 72 107 203 145 326 94z"/>
<path d="M13688 5434 c-161 -39 -281 -149 -369 -338 l-28 -61 -1 161 c0 224
18 208 -241 212 -220 3 -250 -2 -268 -46 -8 -19 -11 -323 -9 -1054 l3 -1027
23 -23 c22 -22 30 -23 225 -26 227 -4 268 3 286 46 7 18 12 237 14 687 3 726
2 706 67 836 60 118 173 172 293 138 44 -12 102 -60 124 -103 46 -90 47 -91
50 -847 4 -708 4 -717 25 -735 18 -17 40 -19 250 -19 229 0 230 0 249 24 18
22 19 50 19 785 0 760 -4 874 -36 1006 -48 196 -192 339 -386 385 -78 18 -214
18 -290 -1z"/>
<path d="M9020 5390 c-18 -18 -20 -33 -20 -195 0 -162 2 -177 20 -195 11 -11
28 -20 38 -20 9 0 169 0 355 0 185 0 337 -2 337 -5 0 -4 -161 -237 -357 -518
-449 -643 -441 -631 -454 -681 -7 -24 -12 -126 -12 -244 0 -275 2 -277 193
-192 111 50 284 96 419 111 117 14 335 6 450 -16 107 -21 270 -74 349 -114 76
-38 104 -39 131 -5 19 25 21 40 21 201 0 239 -3 245 -166 316 -157 68 -344
106 -537 108 -79 0 -105 4 -100 12 4 7 169 244 367 527 198 283 369 531 378
550 15 28 18 61 18 187 0 140 -2 155 -20 173 -20 20 -33 20 -705 20 -672 0
-685 0 -705 -20z"/>
</g>
</svg>
